<svg fill="none" height="512" viewBox="0 0 24 24" width="512" xmlns="http://www.w3.org/2000/svg"><g clip-rule="evenodd" fill-rule="evenodd"><path d="m12 12.25c.4142 0 .75.3358.75.75v5c0 .4142-.3358.75-.75.75s-.75-.3358-.75-.75v-5c0-.4142.3358-.75.75-.75z" fill="#354d58"/><path d="m6.23915 12.7968c-.24965.0926-.43149.3107-.47776.5729l-1.5 8.5c-.07198.4079.20034.7969.60825.8689s.79694-.2003.86893-.6083l1.27748-7.239 4.50895 3.6892c.3206.2623.7931.215 1.0554-.1056.2623-.3205.2151-.7931-.1055-1.0554l-5.49999-4.5c-.20609-.1686-.48612-.2153-.73576-.1227z" fill="#25363e"/><path d="m17.2241 12.7843c.2529.0792.4453.286.506.5439l2 8.5c.0948.4032-.1551.807-.5583.9019-.4032.0948-.807-.1551-.9019-.5583l-1.7098-7.2668-4.0584 3.6525c-.3079.2771-.7821.2521-1.0592-.0558-.2771-.3078-.2521-.7821.0558-1.0592l5-4.5c.197-.1772.4729-.2374.7258-.1582z" fill="#354d58"/><path d="m4.73715 14.7885c-.34592-.1153-.72465.0349-.89752.3559l-3.500004 6.5c-.196378.3647-.059924.8196.304779 1.0159.364705.1964.819545.06 1.015925-.3047l3.20093-5.9446 6.90154 2.3005c.393.131.8177-.0814.9487-.4744.131-.3929-.0814-.8176-.4743-.9486z" fill="#25363e"/><path d="m19.2628 14.7885c.346-.1153.7247.0349.8976.3559l3.5 6.5c.1964.3647.0599.8196-.3048 1.0159-.3647.1964-.8196.06-1.0159-.3047l-3.201-5.9446-6.9015 2.3005c-.393.131-.8177-.0814-.9487-.4744-.131-.3929.0814-.8176.4743-.9486z" fill="#354d58"/><path d="m12 1.25c-2.62335 0-4.75 2.12665-4.75 4.75v3c0 2.6234 2.12665 4.75 4.75 4.75 2.6234 0 4.75-2.1266 4.75-4.75v-3c0-2.62335-2.1266-4.75-4.75-4.75z" fill="#f44336"/><path d="m12 12.25c-.4142 0-.75.3358-.75.75v5c0 .4142.3358.75.75.75z" fill="#25363e"/><path d="m12 1.25v12.5c-2.62335 0-4.75-2.1266-4.75-4.75v-3c0-2.62335 2.12665-4.75 4.75-4.75z" fill="#cc382d"/><g fill="#aa2b21"><path d="m11 4.25c-.6904 0-1.25.55964-1.25 1.25s.5596 1.25 1.25 1.25 1.25-.55964 1.25-1.25-.5596-1.25-1.25-1.25z"/><path d="m13 8.25c-.6904 0-1.25.55964-1.25 1.25 0 .6904.5596 1.25 1.25 1.25s1.25-.5596 1.25-1.25c0-.69036-.5596-1.25-1.25-1.25z"/></g></g></svg>