{
  "accessors": [
    {
      "bufferView": 1,
      "componentType": 5126,
      "count": 40689,
      "max": [
        54.830390930175781,
        74.860198974609375,
        66.393302917480469
      ],
      "min": [
        -54.535579681396484,
        -74.326637268066406,
        -67.1619873046875
      ],
      "type": "VEC3"
    },
    {
      "bufferView": 1,
      "byteOffset": 488268,
      "componentType": 5126,
      "count": 40689,
      "max": [
        0.99997276067733765,
        0.9999663233757019,
        1
      ],
      "min": [
        -0.9999879002571106,
        -0.99988275766372681,
        -0.99991607666015625
      ],
      "type": "VEC3"
    },
    {
      "bufferView": 0,
      "componentType": 5125,
      "count": 244422,
      "max": [
        40688
      ],
      "min": [
        0
      ],
      "type": "SCALAR"
    }
  ],
  "asset": {
    "extras": {
      "author": "JuanGartner (https://sketchfab.com/JuanGartner)",
      "license": "CC-BY-4.0 (http://creativecommons.org/licenses/by/4.0/)",
      "source": "https://sketchfab.com/models/1560a647337c4bd7b58e0e23fcce9cac",
      "title": "Antibody"
    },
    "generator": "Sketchfab-4.27.0",
    "version": "2.0"
  },
  "bufferViews": [
    {
      "buffer": 0,
      "byteLength": 977688,
      "byteOffset": 0,
      "name": "floatBufferViews",
      "target": 34963
    },
    {
      "buffer": 0,
      "byteLength": 976536,
      "byteOffset": 977688,
      "byteStride": 12,
      "name": "floatBufferViews",
      "target": 34962
    }
  ],
  "buffers": [
    {
      "byteLength": 1954224,
      "uri": "scene.bin"
    }
  ],
  "extensionsRequired": [
    "KHR_materials_pbrSpecularGlossiness"
  ],
  "extensionsUsed": [
    "KHR_materials_pbrSpecularGlossiness"
  ],
  "materials": [
    {
      "doubleSided": true,
      "extensions": {
        "KHR_materials_pbrSpecularGlossiness": {
          "diffuseFactor": [
            1,
            1,
            1,
            1
          ],
          "glossinessFactor": 0.40000000000000002,
          "specularFactor": [
            1,
            1,
            1
          ]
        }
      },
      "name": "surface"
    }
  ],
  "meshes": [
    {
      "name": "antibody_0",
      "primitives": [
        {
          "attributes": {
            "NORMAL": 1,
            "POSITION": 0
          },
          "indices": 2,
          "material": 0,
          "mode": 4
        }
      ]
    }
  ],
  "nodes": [
    {
      "children": [
        1
      ],
      "name": "RootNode (gltf orientation matrix)",
      "rotation": [
        -0.70710678118654746,
        -0,
        -0,
        0.70710678118654757
      ]
    },
    {
      "children": [
        2
      ],
      "name": "RootNode (model correction matrix)"
    },
    {
      "children": [
        3,
        5
      ],
      "name": "Root"
    },
    {
      "children": [
        4
      ],
      "matrix": [
        0.030380000000000008,
        -0.064910000000000009,
        -0.038660000000000007,
        0,
        0.07554000000000001,
        0.026530000000000005,
        0.014820000000000002,
        0,
        0.0007800000000000002,
        -0.041400000000000006,
        0.070110000000000006,
        0,
        0.019320000000000004,
        0.046780000000000009,
        0.040910000000000009,
        1
      ],
      "name": "antibody"
    },
    {
      "mesh": 0,
      "name": "antibody_0"
    },
    {
      "children": [
        6
      ],
      "matrix": [
        -0.29086000000000006,
        0.95517000000000007,
        -0.05519000000000001,
        0,
        -0.77110000000000001,
        -0.19988000000000003,
        0.60452000000000006,
        0,
        0.56639000000000006,
        0.21839000000000003,
        0.7946700000000001,
        0,
        4.0762500000000008,
        1.00545,
        5.9038600000000008,
        1
      ],
      "name": "Lamp"
    },
    {
      "name": "Lamp"
    }
  ],
  "scene": 0,
  "scenes": [
    {
      "name": "OSG_Scene",
      "nodes": [
        0
      ]
    }
  ]
}

